<svg xmlns="http://www.w3.org/2000/svg" width="59.22" height="61.629" viewBox="0 0 59.22 61.629"><defs><style>.a,.b{fill:#fff;}.a{font-size:14px;font-family:HelveticaNeue, Helvetica Neue;}.b{stroke:#faa652;stroke-width:0.5px;}</style></defs><g transform="translate(-1080.658 -1412.279)"><text class="a" transform="translate(1105 1434)"><tspan x="0" y="0">₹</tspan></text><g transform="translate(1080.908 1412.529)"><g transform="translate(0 0)"><g transform="translate(0 0)"><path class="b" d="M326.3,784.841a1.288,1.288,0,0,0-1.05.575l-15.473,23.21a1.289,1.289,0,0,0,1.073,2h30.947a1.289,1.289,0,0,0,1.073-2l-15.473-23.21A1.289,1.289,0,0,0,326.3,784.841Zm.023,3.614,13.063,19.6H313.259Z" transform="translate(-298.01 -784.84)"/><path class="b" d="M322.435,790.926a1.047,1.047,0,0,0-.868.419l-2.748,3.664-4.6-.918a1.048,1.048,0,0,0-1.177,1.417l1.706,4.268-4.268,1.708a1.049,1.049,0,0,0-.24,1.813l3.637,2.728-.881,3.52,2.036.508,1.049-4.194a1.049,1.049,0,0,0-.389-1.094l-2.7-2.026,3.51-1.4a1.048,1.048,0,0,0,.584-1.362l-1.378-3.447,3.346.67a1.049,1.049,0,0,0,1.045-.4l2.306-3.074,2.306,3.074a1.049,1.049,0,0,0,1.044.4l3.346-.67-1.378,3.447a1.049,1.049,0,0,0,.584,1.362l3.51,1.4-2.7,2.026a1.048,1.048,0,0,0-.389,1.094l1.049,4.194,2.036-.508-.881-3.52,3.637-2.728a1.049,1.049,0,0,0-.24-1.812l-4.268-1.708,1.706-4.268a1.048,1.048,0,0,0-1.178-1.417l-4.6.918-2.748-3.664a1.048,1.048,0,0,0-.811-.42Z" transform="translate(-294.094 -764.4)"/><path class="b" d="M322.193,796.482a6.292,6.292,0,1,0,6.292,6.292A6.307,6.307,0,0,0,322.193,796.482Zm0,2.1A4.194,4.194,0,1,1,318,802.773,4.178,4.178,0,0,1,322.193,798.579Z" transform="translate(-276.084 -747.936)"/><path class="b" d="M324.053,794.365a1.047,1.047,0,0,0-.655.23l-5.243,4.194a1.049,1.049,0,0,0,.655,1.868h10.471v-2.1H321.8l2.621-2.1H329.3v-2.1Z" transform="translate(-270.575 -754.208)"/><path class="b" d="M318.554,798.6v2.1h8.389v-2.1Z" transform="translate(-268.223 -741.664)"/><path class="b" d="M322.239,797.53a1.049,1.049,0,1,1-1.048-1.049A1.048,1.048,0,0,1,322.239,797.53Z" transform="translate(-263.519 -747.937)"/><path class="b" d="M321.154,799.637a2.1,2.1,0,1,1-2.1-2.1A2.1,2.1,0,0,1,321.154,799.637Z" transform="translate(-272.949 -744.801)"/><path class="b" d="M314.27,796.482a6.292,6.292,0,1,1-6.292,6.292A6.307,6.307,0,0,1,314.27,796.482Zm0,2.1a4.194,4.194,0,1,0,4.194,4.194A4.178,4.178,0,0,0,314.27,798.579Z" transform="translate(-299.561 -747.936)"/><path class="b" d="M305.854,793.307v2.1h5.923l10.2,8.159a1.048,1.048,0,0,0,.655.229H330a1.033,1.033,0,0,1,1.048,1.048v7.34a2.069,2.069,0,0,1-2.095,2.1h-4.211v2.1h4.211a4.207,4.207,0,0,0,4.192-4.194v-7.34A3.162,3.162,0,0,0,330,801.7h-7l-10.2-8.159a1.049,1.049,0,0,0-.655-.229Z" transform="translate(-305.854 -757.344)"/><path class="b" d="M311.673,797.54a1.049,1.049,0,1,0,0,2.1h6.277a1.049,1.049,0,0,0,0-2.1Z" transform="translate(-291.721 -744.8)"/><path class="b" d="M305.854,794.365v2.1h4.874l2.621,2.1h-7.481v2.1H316.34a1.049,1.049,0,0,0,.655-1.868l-5.243-4.194a1.047,1.047,0,0,0-.655-.23Z" transform="translate(-305.854 -754.208)"/><path class="b" d="M305.854,797.54v2.1h9.466v-2.1Z" transform="translate(-305.854 -744.8)"/><path class="b" d="M305.854,798.6v2.1h10.5v-2.1Z" transform="translate(-305.854 -741.664)"/><path class="b" d="M2.1,1.049A1.049,1.049,0,1,0,1.049,2.1,1.049,1.049,0,0,0,2.1,1.049Z" transform="translate(2.097 50.642) rotate(180)"/><path class="b" d="M4.194,2.1a2.1,2.1,0,1,0-2.1,2.1A2.1,2.1,0,0,0,4.194,2.1Z" transform="translate(16.807 56.934) rotate(180)"/><path class="b" d="M334.785,793.307a1.049,1.049,0,0,0-.655.229l-10.2,8.159h-5.953a4.207,4.207,0,0,0-4.192,4.194v7.34a3.162,3.162,0,0,0,3.146,3.146H324.3v-2.1H316.93a1.033,1.033,0,0,1-1.049-1.049v-7.34a2.069,2.069,0,0,1,2.1-2.1H324.3a1.049,1.049,0,0,0,.655-.23l10.2-8.159h5.923v-2.1Z" transform="translate(-282.356 -757.344)"/><path class="b" d="M317.2,795.688v3.146a2.069,2.069,0,0,1-2.1,2.1h-1.049v2.1H315.1a4.207,4.207,0,0,0,4.192-4.194v-3.146Z" transform="translate(-281.55 -750.288)"/></g></g></g></g></svg>