<svg xmlns="http://www.w3.org/2000/svg" width="29.063" height="26.749" viewBox="0 0 29.063 26.749"><defs><style>.a{fill:#fff;fill-rule:evenodd;}</style></defs><g transform="translate(0 0)"><g transform="translate(0 0)"><path class="a" d="M8,20.588c.351,4.5,3.433,9.329,7.6,13.027,4.462,3.959,10.168,6.62,15.094,6.184a8.726,8.726,0,0,0,5.213-3.017,4.9,4.9,0,0,0,.59-1.353.246.246,0,0,0-.061-.252,12.056,12.056,0,0,0-4.045-2.6,13.449,13.449,0,0,0-5.008-.965.247.247,0,0,0-.214.118,10.445,10.445,0,0,1-.711,1.039c-.342.413-.519.809-1.331.653-2.923-1.044-8.331-5.705-9.915-8.393-.287-.776.074-1.015.424-1.421a10.535,10.535,0,0,1,.907-.873.246.246,0,0,0,.082-.231,13.453,13.453,0,0,0-1.779-4.78,12.055,12.055,0,0,0-3.232-3.56.247.247,0,0,0-.259-.019,4.886,4.886,0,0,0-1.237.806A8.725,8.725,0,0,0,8,20.588Zm20.014,9.757c.317-.515.631-1.009.91-1.385.99-1.327,8.156,1.665,8.138,3.576a7.75,7.75,0,0,1-.163,1.292.252.252,0,0,1-.413.142,13.015,13.015,0,0,0-3.7-2.238,14.247,14.247,0,0,0-4.573-1,.252.252,0,0,1-.2-.384ZM17.768,21.671c.455-.4.891-.788,1.215-1.127,1.145-1.195-2.989-7.769-4.871-7.436a7.768,7.768,0,0,0-1.248.374.252.252,0,0,0-.071.431,13.026,13.026,0,0,1,2.818,3.276,14.248,14.248,0,0,1,1.745,4.345.252.252,0,0,0,.412.136Z" transform="translate(-8 -13.096)"/></g></g></svg>