<svg xmlns="http://www.w3.org/2000/svg" width="64.658" height="67.47" viewBox="0 0 64.658 67.47"><defs><style>.a{fill:#fff;}</style></defs><g transform="translate(0)"><path class="a" d="M9.443,14.905H9.414a1.394,1.394,0,0,0-1.392,1.406,1.413,1.413,0,1,0,1.42-1.406Zm22.4,41.741a1.406,1.406,0,1,0,1.968,0A1.409,1.409,0,0,0,31.845,56.646ZM63.753,28.112H61.5l3.6-12.254a1.4,1.4,0,0,0-2.586-1.06c-.543,1.018-2.859,2.069-5.788,2.069-3.219,0-5.622-1.484-5.622-2.811V5.622a5.622,5.622,0,0,0-11.245,0V7.028a1.406,1.406,0,0,0,2.811,0V5.622a2.811,2.811,0,1,1,5.622,0v8.434c0,1.327-2.4,2.811-5.622,2.811-2.929,0-5.246-1.051-5.791-2.069a1.4,1.4,0,0,0-2.586,1.06l3.6,12.254h-4.7l-9-20a4.214,4.214,0,0,0-5.575-2.114L5.8,11.759a4.224,4.224,0,0,0-2.114,5.575L8.532,28.112H1.906A1.406,1.406,0,0,0,.5,29.518v25.3A12.666,12.666,0,0,0,13.151,67.47H52.508A12.666,12.666,0,0,0,65.158,54.819v-25.3A1.406,1.406,0,0,0,63.753,28.112ZM51.1,18.267a11.123,11.123,0,0,0,5.622,1.411,14,14,0,0,0,4.546-.751l-2.7,9.184H51.1Zm-8.434,1.411a11.123,11.123,0,0,0,5.622-1.411v9.845H40.827l-2.7-9.184A13.97,13.97,0,0,0,42.668,19.679ZM6.249,16.184a1.405,1.405,0,0,1,.7-1.858L19.774,8.56a1.4,1.4,0,0,1,1.855.7l8.479,18.849h-18.5Zm56.1,38.635a9.85,9.85,0,0,1-9.839,9.839H13.151a9.85,9.85,0,0,1-9.839-9.839v-23.9H62.347ZM27.111,44.294a1.384,1.384,0,0,0,1.5-1.307,4.25,4.25,0,0,1,8.437.239c0,2.516-2.148,3.351-4.251,3.835l-.312.076a1.4,1.4,0,0,0-1.054,1.358l0,3.514a1.406,1.406,0,0,0,2.811,0l0-2.42c3.731-1.068,5.62-3.208,5.62-6.367A7.056,7.056,0,0,0,25.8,42.8,1.406,1.406,0,0,0,27.111,44.294Z" transform="translate(-0.5)"/></g></svg>