<svg xmlns="http://www.w3.org/2000/svg" xmlns:xlink="http://www.w3.org/1999/xlink" width="80" height="99.779" viewBox="0 0 80 99.779"><defs><style>.a{fill:#f89c40;}.b{filter:url(#a);}</style><filter id="a" x="0" y="0" width="80" height="99.779" filterUnits="userSpaceOnUse"><feOffset dy="3" input="SourceAlpha"/><feGaussianBlur stdDeviation="3" result="b"/><feFlood flood-opacity="0.161"/><feComposite operator="in" in2="b"/><feComposite in="SourceGraphic"/></filter></defs><g class="b" transform="matrix(1, 0, 0, 1, 0, 0)"><path class="a" d="M31,81.779h0c-.078-.085-7.867-8.611-15.5-19.035A134.1,134.1,0,0,1,4.844,46.056C1.63,39.9,0,34.8,0,30.907A30.953,30.953,0,0,1,31,0,30.9,30.9,0,0,1,62,30.907c0,3.893-1.63,8.991-4.844,15.15A134.1,134.1,0,0,1,46.5,62.744C38.868,73.168,31.079,81.693,31,81.778ZM31,17.25a13.676,13.676,0,1,0,5.332,1.073A13.649,13.649,0,0,0,31,17.25Z" transform="translate(9 6)"/></g></svg>