<svg xmlns="http://www.w3.org/2000/svg" width="82" height="82" viewBox="0 0 82 82"><defs><style>.a{fill:#4c7991;}.b{fill:#fff;}</style></defs><g transform="translate(-1007.5 -7987)"><circle class="a" cx="41" cy="41" r="41" transform="translate(1007.5 7987)"/><g transform="translate(1031.417 8011.451)"><path class="b" d="M7.556.53,7.53,6.95a.584.584,0,0,1-.586.581H.529V32.047a3.507,3.507,0,0,0,3.5,3.5H32.046a3.483,3.483,0,0,0,3.5-3.5V18.04a.583.583,0,0,0-.584-.583H30.882v1.129l3.5.036V32.047a2.335,2.335,0,1,1-4.67,0q0-15.467,0-30.933A.584.584,0,0,0,29.13.53ZM6.388.848.875,6.364H6.366ZM10.453,4.03H25.629a.584.584,0,1,1,0,1.167H10.453A.584.584,0,1,1,10.453,4.03Zm0,3.5h15.11a.584.584,0,0,1,.585.584v9.339a.585.585,0,0,1-.585.584H10.453a.585.585,0,0,1-.585-.584V8.115a.584.584,0,0,1,.585-.584ZM11.036,8.7v8.172H24.979V8.7ZM4.615,9.866H6.95a.584.584,0,1,1,0,1.167H4.615A.584.584,0,1,1,4.615,9.866Zm0,3.5H6.95a.584.584,0,1,1,0,1.167H4.615A.584.584,0,1,1,4.615,13.369Zm0,3.5H6.95a.584.584,0,1,1,0,1.167H4.615A.584.584,0,1,1,4.615,16.871Zm0,3.5H13.37a.584.584,0,1,1,0,1.167H4.615A.584.584,0,1,1,4.615,20.373Zm12.259,0h8.755a.584.584,0,1,1,0,1.167H16.874A.584.584,0,1,1,16.874,20.373Zm-12.259,3.5H13.37a.584.584,0,1,1,0,1.167H4.615A.584.584,0,1,1,4.615,23.875Zm12.259,0h8.755a.584.584,0,1,1,0,1.167H16.874A.584.584,0,1,1,16.874,23.875Zm-12.259,3.5H13.37a.584.584,0,1,1,0,1.167H4.615A.584.584,0,1,1,4.615,27.377Zm12.259,0h8.755a.584.584,0,1,1,0,1.167H16.874A.584.584,0,1,1,16.874,27.377Zm-12.259,3.5H13.37a.584.584,0,1,1,0,1.167H4.615A.584.584,0,1,1,4.615,30.879Zm12.259,0h8.755a.584.584,0,1,1,0,1.167H16.874A.584.584,0,1,1,16.874,30.879Z" transform="translate(0 0)"/></g></g></svg>