<svg xmlns="http://www.w3.org/2000/svg" width="69.388" height="69.188" viewBox="0 0 69.388 69.188"><g transform="translate(0 -0.775)"><g transform="translate(0 0.775)"><path d="M67.423,61.845H63.832V29.957h1.9a1.967,1.967,0,0,0,1.965-1.965V17.556a1.967,1.967,0,0,0-1.965-1.965H62.612V10.1a2.782,2.782,0,0,0-2.778-2.778H45.888c.068-.339.163-.664.257-.989a1.454,1.454,0,0,0-.339-1.409,1.669,1.669,0,0,0-1.775-.312,6.621,6.621,0,0,1-5.99-1.464l-2.2-1.938a1.719,1.719,0,0,0-2.29,0L31.374,3.15a6.621,6.621,0,0,1-5.99,1.464,1.616,1.616,0,0,0-1.775.312,1.485,1.485,0,0,0-.352,1.409c.095.325.176.664.257.989H9.568A2.776,2.776,0,0,0,6.776,10.1v5.489H3.659a1.967,1.967,0,0,0-1.965,1.965V27.992a1.967,1.967,0,0,0,1.965,1.965h1.9V61.845H1.965A1.967,1.967,0,0,0,0,63.811V68a1.967,1.967,0,0,0,1.965,1.965H67.423A1.967,1.967,0,0,0,69.388,68V63.811A1.967,1.967,0,0,0,67.423,61.845ZM26.834,34.917H12.739a1.7,1.7,0,0,0-1.694,1.694V61.832H7.589V29.957H61.8v31.9H28.528V36.611A1.7,1.7,0,0,0,26.834,34.917Zm-.339,2.033V61.832H13.078V36.95ZM45.577,9.425V9.357H59.834a.752.752,0,0,1,.745.745v5.489H45.522C45.522,10.211,45.509,10.224,45.577,9.425ZM32.715,4.668h0l1.979-1.762,1.979,1.748a8.649,8.649,0,0,0,7.264,2.033,17.945,17.945,0,0,0-.434,3.361c-.014.42-.014.014-.014,5.99a6.987,6.987,0,0,1-.718,3.049,7.23,7.23,0,0,1-3.795,3.483l-4.283,1.748L30.412,22.6a7.234,7.234,0,0,1-3.795-3.483h0a7.122,7.122,0,0,1-.718-3.049V10.645a17.66,17.66,0,0,0-.447-3.93A8.676,8.676,0,0,0,32.715,4.668ZM8.809,10.1a.752.752,0,0,1,.745-.745H23.8c.068.881.054.827.054,6.234H8.809ZM3.727,27.924v-10.3H24a9.151,9.151,0,0,0,5.651,6.858l4.662,1.884a1.047,1.047,0,0,0,.759,0l4.662-1.884a9.19,9.19,0,0,0,5.651-6.858H65.661v10.3ZM67.355,67.917H2.033V63.865H67.355Z" transform="translate(0 -0.775)"/><path d="M235.6,272.351h22.5a2.111,2.111,0,0,0,2.1-2.1V254.8a2.111,2.111,0,0,0-2.1-2.1H235.6a2.111,2.111,0,0,0-2.1,2.1v15.45A2.1,2.1,0,0,0,235.6,272.351Zm19.949-17.618H258.1a.064.064,0,0,1,.068.068v15.45a.064.064,0,0,1-.068.068H255.55Zm-5.38,0h3.347v15.585h-3.347Zm-4.987,0h2.968v15.585h-2.968Zm-5,0h2.968v15.585h-2.968Zm-4.648.068a.064.064,0,0,1,.068-.068h2.548v15.585H235.6a.064.064,0,0,1-.068-.068Z" transform="translate(-201.855 -218.558)"/><path d="M113.016,361.308a1.024,1.024,0,0,0,1.016-1.016v-2.575a1.016,1.016,0,1,0-2.033,0v2.575A1.015,1.015,0,0,0,113.016,361.308Z" transform="translate(-96.821 -308.464)"/><path d="M208.732,56.816l-.461,2.643a1.658,1.658,0,0,0,.651,1.613,1.64,1.64,0,0,0,1.735.122l2.385-1.247,2.385,1.247a1.64,1.64,0,0,0,1.735-.122,1.621,1.621,0,0,0,.651-1.613l-.461-2.643,1.924-1.884a1.644,1.644,0,0,0-.908-2.805l-2.656-.393-1.193-2.412a1.635,1.635,0,0,0-1.477-.922h0a1.635,1.635,0,0,0-1.477.922l-1.193,2.412-2.656.393a1.643,1.643,0,0,0-.908,2.805Zm2.141-3.09a1.638,1.638,0,0,0,1.233-.894l.935-1.884.935,1.884a1.62,1.62,0,0,0,1.233.894l2.087.3-1.5,1.464a1.617,1.617,0,0,0-.474,1.45l.352,2.074-1.857-.976a1.7,1.7,0,0,0-.759-.19,1.657,1.657,0,0,0-.759.19l-1.857.976.352-2.074a1.605,1.605,0,0,0-.474-1.45l-1.5-1.464Z" transform="translate(-178.348 -41.946)"/></g></g></svg>