<svg xmlns="http://www.w3.org/2000/svg" width="49.378" height="59.482" viewBox="0 0 49.378 59.482"><defs><style>.a{fill:#fff;}</style></defs><g transform="translate(0 0)"><path class="a" d="M22.248,13l.4.518.187.225Z" transform="translate(-6.819 -0.997)"/><path class="a" d="M30.685,10.682v-1.9a14.1,14.1,0,0,0-6.974,1.849l.94,1.649A12.215,12.215,0,0,1,30.685,10.682Z" transform="translate(-6.893 -0.784)"/><path class="a" d="M50.035,41.884l-13.648-2.73V37.441a11.4,11.4,0,0,0,5.538-8.034,4.744,4.744,0,0,0,3.958-4.667V14.411A5.955,5.955,0,0,0,41.8,8.75l-.045-.088a13.86,13.86,0,0,0-26.258,6.2v9.878a4.745,4.745,0,0,0,3.958,4.668,11.411,11.411,0,0,0,5.538,8.034v1.713l-13.648,2.73A6.663,6.663,0,0,0,6,48.4V59.874H55.378V48.4A6.664,6.664,0,0,0,50.035,41.884Zm-12.821-.628-1.422,5.685-3.613-2.408,3.569-3.569ZM28.637,55.443l4.432,1.478.235,1.054H28.075Zm.415-1.864.5-2.251h2.274l.763,3.431Zm2.795-4.151H29.531L28.924,47l1.765-1.177L32.454,47ZM42.084,27.413V22.066a2.831,2.831,0,0,1,0,5.347ZM17.395,24.739a2.845,2.845,0,0,1,1.9-2.675l0,5.349A2.845,2.845,0,0,1,17.395,24.739Zm1.9-9.917v.2c0,.075,0,.15.007.224l0,4.844a4.7,4.7,0,0,0-1.9.878v-6.1A11.962,11.962,0,0,1,40.056,9.512l.425.85.424.106a4.057,4.057,0,0,1,3.079,3.943v6.555a4.7,4.7,0,0,0-1.9-.877V19.042a6.647,6.647,0,0,0-6.647-6.647,9.047,9.047,0,0,0-4.022.95l-7.147,3.574a2.124,2.124,0,0,1-3.074-1.9v-.2a2.132,2.132,0,0,1,.819-1.677l-.18-.231L20.8,11.681A4,4,0,0,0,19.294,14.822Zm1.9,12.766V18.434a4.132,4.132,0,0,0,3.923.183l7.147-3.574a7.139,7.139,0,0,1,3.173-.749,4.748,4.748,0,0,1,4.748,4.748v8.546a9.5,9.5,0,0,1-18.992,0Zm9.5,11.395a11.321,11.321,0,0,0,3.8-.665V39.54l-3.8,3.8-3.8-3.8V38.318A11.321,11.321,0,0,0,30.689,38.983Zm-5.06,1.981L29.2,44.533l-3.613,2.408-1.422-5.685ZM7.9,48.4a4.76,4.76,0,0,1,3.817-4.656L22.3,41.63l2.1,8.388,2.849-1.9.568,2.273-1.685,7.583H17.395v-9.5H15.5v9.5H7.9Zm45.58,9.573h-7.6v-9.5h-1.9v9.5H35.249L33.563,50.39l.568-2.273,2.849,1.9,2.1-8.388,10.585,2.117A4.762,4.762,0,0,1,53.479,48.4Z" transform="translate(-6 -0.391)"/><ellipse class="a" cx="1.366" cy="0.683" rx="1.366" ry="0.683" transform="translate(28.786 20.486)"/><ellipse class="a" cx="1.366" cy="0.683" rx="1.366" ry="0.683" transform="translate(17.86 20.486)"/><path class="a" d="M36.5,30H34.6a2.849,2.849,0,0,1-5.7,0H27a4.748,4.748,0,0,0,9.5,0Z" transform="translate(-7.059 -1.854)"/><rect class="a" width="2.731" height="1.366" transform="translate(6.935 30.045)"/><rect class="a" width="1.366" height="2.731" transform="translate(5.569 31.411)"/><rect class="a" width="2.731" height="1.366" transform="translate(6.935 34.143)"/><rect class="a" width="1.366" height="2.731" transform="translate(9.666 31.411)"/><rect class="a" width="1.366" height="1.366" transform="translate(45.175 31.411)"/><rect class="a" width="2.731" height="1.366" transform="translate(42.443 32.777)"/><rect class="a" width="1.366" height="2.731" transform="translate(45.175 34.143)"/><rect class="a" width="1.366" height="1.366" transform="translate(46.54 32.777)"/><rect class="a" width="1.366" height="2.731" transform="translate(43.809 0)"/><rect class="a" width="1.366" height="1.366" transform="translate(42.443 2.731)"/><rect class="a" width="1.366" height="2.731" transform="translate(43.809 4.097)"/><rect class="a" width="2.731" height="1.366" transform="translate(45.175 2.731)"/><rect class="a" width="1.366" height="2.731" transform="translate(2.838 4.097)"/><rect class="a" width="1.366" height="1.366" transform="translate(1.472 6.829)"/><rect class="a" width="1.366" height="1.366" transform="translate(2.838 8.194)"/><rect class="a" width="2.731" height="1.366" transform="translate(4.203 6.829)"/></g></svg>