<svg xmlns="http://www.w3.org/2000/svg" width="85.483" height="59.327" viewBox="0 0 85.483 59.327"><defs><style>.a{fill:#faa652;}</style></defs><path class="a" d="M75.876,38.333c1.98-3.6,5.579-7.468,11.7-11.158A5.488,5.488,0,0,0,90.363,22.5,5.376,5.376,0,0,0,82.8,17.547C72.367,22.136,55,33.563,55,57.229a19.121,19.121,0,1,0,20.876-18.9Z" transform="translate(-7.76 -17.068)"/><path class="a" d="M23.286,38.333c1.98-3.6,5.579-7.468,11.7-11.158A5.488,5.488,0,0,0,37.773,22.5a5.376,5.376,0,0,0-7.558-4.949C19.866,22.136,2.5,33.563,2.5,57.229a19.122,19.122,0,1,0,20.786-18.9Z" transform="translate(-2.5 -17.068)"/></svg>