<svg xmlns="http://www.w3.org/2000/svg" width="44" height="43" viewBox="0 0 44 43"><defs><style>.a{fill:#383185;}.b{fill:#fff;}</style></defs><g transform="translate(0 0)"><ellipse class="a" cx="22" cy="21.5" rx="22" ry="21.5" transform="translate(0 0)"/><g transform="translate(12.713 12.364)"><path class="b" d="M35.5,33.948l-5.058-5.058a8.461,8.461,0,1,0-6.753,3.362,8.334,8.334,0,0,0,5.114-1.724l5.086,5.029a1.132,1.132,0,0,0,.819.339,1.18,1.18,0,0,0,.819-.339A1.152,1.152,0,0,0,35.5,33.948ZM23.723,29.964A6.188,6.188,0,1,1,28.1,19.4a6.039,6.039,0,0,1,1.808,4.38,6.2,6.2,0,0,1-1.808,4.38A6.086,6.086,0,0,1,23.723,29.964Z" transform="translate(-15.225 -15.3)"/></g></g></svg>