<svg xmlns="http://www.w3.org/2000/svg" xmlns:xlink="http://www.w3.org/1999/xlink" width="74.008" height="70.573" viewBox="0 0 74.008 70.573"><defs><style>.a,.d{fill:#fff;}.b{fill:#faa652;}.c{clip-path:url(#a);}.d{stroke:#ff7f00;stroke-width:0.2px;}</style><clipPath id="a"><path class="a" d="M0,39.335,19.633,20.378a16.037,16.037,0,1,1,6.233,8.785l-.285,1.879L8.665,48.306Z" transform="translate(0 0)"/></clipPath></defs><g transform="translate(23.577 0)"><path class="a" d="M65.694,36.291,59,30.3V19.777a1.1,1.1,0,0,0-1.1-1.1H51.4a1.1,1.1,0,0,0-1.1,1.1V22.5l-8.745-7.836h-.044l-.081-.059-.1-.059-.088-.037-.11-.037h-.718l-.1.044-.088.051-.1.066H40.1L15.953,36.291a1.1,1.1,0,0,0,1.466,1.635l5.175-4.64V65.538a1.1,1.1,0,0,0,1.1,1.1H57.9a1.1,1.1,0,0,0,1.1-1.1V33.249l5.226,4.684a1.1,1.1,0,1,0,1.466-1.642ZM52.5,20.9h4.3v7.425l-4.3-3.856V20.876ZM35.121,64.446V53.92a4.757,4.757,0,0,1,4.75-4.75h1.9a4.757,4.757,0,0,1,4.75,4.75V64.446Zm21.682,0H48.74V53.92a6.956,6.956,0,0,0-6.949-6.949H39.878a6.956,6.956,0,0,0-6.949,6.949V64.446H24.793V31.322L40.823,16.955,56.8,31.278Z" transform="translate(-15.631 -14.47)"/></g><ellipse class="b" cx="17.8" cy="17.8" rx="17.8" ry="17.8" transform="translate(16.844 20.4)"/><g class="c" transform="translate(0 22.268)"><g transform="translate(9.414 -7.466)"><g transform="translate(0 0)"><path class="d" d="M55.595,13.188c-10.3-10.3-9.531-9.531-9.788-9.7a.865.865,0,0,1-.258-.086H18.158a.811.811,0,0,0-.859.859v9.187c-.687.515-1.288,1.03-1.889,1.546a16.115,16.115,0,0,0-.6,22.153l-2.232,2.232-1.288-1.288a.83.83,0,0,0-1.2,0L1.93,46.246a3.421,3.421,0,0,0,0,4.894l.172.172a3.421,3.421,0,0,0,4.894,0l8.157-8.157a.83.83,0,0,0,0-1.2l-1.288-1.374L16.1,38.346c.429.343.773.687,1.2,1.03v13.91a.811.811,0,0,0,.859.859H55.08a.811.811,0,0,0,.859-.859V13.961A.693.693,0,0,0,55.595,13.188ZM5.794,50.024a1.659,1.659,0,0,1-2.4,0l-.172-.172a1.66,1.66,0,0,1,0-2.4l7.556-7.556,1.288,1.288h0l1.288,1.288ZM53.019,13.017H46.407v-6.7ZM16.613,16.28a14.389,14.389,0,1,1,0,20.35A14.459,14.459,0,0,1,16.613,16.28ZM54.221,52.514h-35.2V40.493A16.064,16.064,0,0,0,38.165,15.077a15.936,15.936,0,0,0-19.147-2.662v-7.3H44.69v8.758a.811.811,0,0,0,.859.859h8.672Z" transform="translate(-0.9 -3.4)"/><g transform="translate(13.839 10.969)"><path class="d" d="M19.407,35.516A14.926,14.926,0,0,0,20.523,36.8a12.075,12.075,0,0,0,17.087,0,14.926,14.926,0,0,0,1.116-1.288l.086-.086a12.062,12.062,0,1,0-19.405.086Zm2.318.086a4.908,4.908,0,0,1-.6-.687,9.519,9.519,0,0,1,15.8,0,4.3,4.3,0,0,1-.6.687A10.313,10.313,0,0,1,21.725,35.6ZM25.5,25.384a3.606,3.606,0,1,1,3.606,3.606A3.628,3.628,0,0,1,25.5,25.384Zm-3.778-4.465a10.416,10.416,0,0,1,14.683,0,10.3,10.3,0,0,1,1.631,12.536,11.392,11.392,0,0,0-5.581-3.864,5.324,5.324,0,1,0-6.7,0,10.675,10.675,0,0,0-5.581,3.864A10.416,10.416,0,0,1,21.725,20.919Z" transform="translate(-17.017 -16.175)"/></g><g transform="translate(21.294 43.361)"><path class="d" d="M25.7,54.759a.811.811,0,0,0,.859.859H54.464a.859.859,0,0,0,0-1.717H26.559A.923.923,0,0,0,25.7,54.759Z" transform="translate(-25.7 -53.9)"/></g><g transform="translate(46.023 21.38)"><path class="d" d="M55.359,30.017h1.717a.859.859,0,0,0,0-1.717H55.359a.859.859,0,0,0,0,1.717Z" transform="translate(-54.5 -28.3)"/></g><g transform="translate(46.023 15.885)"><path class="d" d="M55.359,23.617h1.717a.859.859,0,0,0,0-1.717H55.359a.811.811,0,0,0-.859.859A.86.86,0,0,0,55.359,23.617Z" transform="translate(-54.5 -21.9)"/></g><g transform="translate(46.023 26.789)"><path class="d" d="M55.359,36.317h1.717a.859.859,0,1,0,0-1.717H55.359a.859.859,0,1,0,0,1.717Z" transform="translate(-54.5 -34.6)"/></g><g transform="translate(46.023 32.285)"><path class="d" d="M55.359,42.717h1.717a.859.859,0,0,0,0-1.717H55.359a.859.859,0,0,0,0,1.717Z" transform="translate(-54.5 -41)"/></g><g transform="translate(46.023 37.78)"><path class="d" d="M55.359,49.117h1.717a.859.859,0,1,0,0-1.717H55.359a.859.859,0,1,0,0,1.717Z" transform="translate(-54.5 -47.4)"/></g></g></g></g></svg>