<svg xmlns="http://www.w3.org/2000/svg" xmlns:xlink="http://www.w3.org/1999/xlink" width="72.802" height="65.127" viewBox="0 0 72.802 65.127"><defs><style>.a{fill:#fff;}.b,.c,.f{fill:none;}.b{stroke:#fff;stroke-width:2px;}.d{clip-path:url(#a);}.e,.g{stroke:none;}.g{fill:#fff;}</style><clipPath id="a"><path class="a" d="M0,42.852,21.389,22.2a17.472,17.472,0,1,1,6.791,9.57l-.311,2.047L9.44,52.625Z" transform="translate(0 0)"/></clipPath></defs><g transform="translate(1.67)"><g class="b" transform="translate(7.426)"><circle class="e" cx="4.852" cy="4.852" r="4.852"/><circle class="f" cx="4.852" cy="4.852" r="3.852"/></g><g class="c" transform="translate(0 11.644)"><path class="e" d="M24.555,9.7H0A12.672,12.672,0,0,1,4.394,2.766a12.619,12.619,0,0,1,15.767,0A12.669,12.669,0,0,1,24.554,9.7Z"/><path class="g" d="M 21.68839454650879 7.704380989074707 C 21.00957489013672 6.407958507537842 20.06366348266602 5.250692844390869 18.9098949432373 4.326130867004395 C 17.0113353729248 2.804360866546631 14.71771430969238 2.000000953674316 12.2769947052002 2.000000953674316 C 9.837444305419922 2.000000953674316 7.544004917144775 2.804440975189209 5.644964694976807 4.326070785522461 C 4.491076469421387 5.251053810119629 3.54518723487854 6.40822696685791 2.866358995437622 7.704380989074707 L 21.68839454650879 7.704380989074707 M 24.55477523803711 9.704380989074707 L 4.757995611726074e-06 9.704380989074707 C 0.6422247290611267 6.984810829162598 2.203704833984375 4.521390914916992 4.394024848937988 2.765570878982544 C 6.652034759521484 0.9563109874725342 9.377544403076172 9.713745612316416e-07 12.2769947052002 9.713745612316416e-07 C 15.17722511291504 9.713745612316416e-07 17.90351486206055 0.9563109874725342 20.16074562072754 2.765570878982544 C 22.35185432434082 4.521390914916992 23.9117546081543 6.984790802001953 24.55398559570312 9.701991081237793 L 24.55477523803711 9.704380989074707 Z"/></g></g><g transform="translate(48.247 36.874)"><g class="b" transform="translate(7.426)"><circle class="e" cx="4.852" cy="4.852" r="4.852"/><circle class="f" cx="4.852" cy="4.852" r="3.852"/></g><g class="c" transform="translate(0 11.644)"><path class="e" d="M24.555,9.7H0A12.672,12.672,0,0,1,4.394,2.766a12.619,12.619,0,0,1,15.767,0A12.669,12.669,0,0,1,24.554,9.7Z"/><path class="g" d="M 21.68839454650879 7.704380989074707 C 21.00957489013672 6.407958507537842 20.06366348266602 5.250692844390869 18.9098949432373 4.326130867004395 C 17.0113353729248 2.804360866546631 14.71771430969238 2.000000953674316 12.2769947052002 2.000000953674316 C 9.837444305419922 2.000000953674316 7.544004917144775 2.804440975189209 5.644964694976807 4.326070785522461 C 4.491076469421387 5.251053810119629 3.54518723487854 6.40822696685791 2.866358995437622 7.704380989074707 L 21.68839454650879 7.704380989074707 M 24.55477523803711 9.704380989074707 L 4.757995611726074e-06 9.704380989074707 C 0.6422247290611267 6.984810829162598 2.203704833984375 4.521390914916992 4.394024848937988 2.765570878982544 C 6.652034759521484 0.9563109874725342 9.377544403076172 9.713745612316416e-07 12.2769947052002 9.713745612316416e-07 C 15.17722511291504 9.713745612316416e-07 17.90351486206055 0.9563109874725342 20.16074562072754 2.765570878982544 C 22.35185432434082 4.521390914916992 23.9117546081543 6.984790802001953 24.55398559570312 9.701991081237793 L 24.55477523803711 9.704380989074707 Z"/></g></g><g class="d" transform="translate(0 12.502)"><g transform="translate(10.257 -8.134)"><g transform="translate(0 0)"><path class="a" d="M60.485,14.064C49.26,2.839,50.1,3.681,49.822,3.494a.942.942,0,0,1-.281-.094H19.7a.884.884,0,0,0-.935.935V14.344c-.748.561-1.4,1.122-2.058,1.684a17.555,17.555,0,0,0-.655,24.133l-2.432,2.432-1.4-1.4a.9.9,0,0,0-1.31,0L2.022,50.077a3.727,3.727,0,0,0,0,5.332l.187.187a3.727,3.727,0,0,0,5.332,0l8.886-8.886a.9.9,0,0,0,0-1.31l-1.4-1.5,2.432-2.432c.468.374.842.748,1.31,1.122V57.747a.884.884,0,0,0,.935.935H59.924a.884.884,0,0,0,.935-.935V14.905A.755.755,0,0,0,60.485,14.064ZM6.232,54.193a1.808,1.808,0,0,1-2.619,0l-.187-.187a1.808,1.808,0,0,1,0-2.619l8.232-8.232,1.4,1.4h0l1.4,1.4ZM57.679,13.877h-7.2V6.58ZM18.018,17.431a15.676,15.676,0,1,1,0,22.169A15.752,15.752,0,0,1,18.018,17.431ZM58.989,56.905H20.637V43.81A17.5,17.5,0,0,0,41.5,16.122a17.361,17.361,0,0,0-20.86-2.9V5.271H48.606v9.541a.884.884,0,0,0,.935.935h9.448Z" transform="translate(-0.9 -3.4)"/><g transform="translate(15.076 11.95)"><path class="a" d="M19.62,37.245a16.261,16.261,0,0,0,1.216,1.4,13.154,13.154,0,0,0,18.615,0,16.262,16.262,0,0,0,1.216-1.4l.094-.094a13.141,13.141,0,1,0-21.14.094Zm2.526.094a5.348,5.348,0,0,1-.655-.748,10.371,10.371,0,0,1,17.211,0,4.686,4.686,0,0,1-.655.748A11.235,11.235,0,0,1,22.146,37.339Zm4.116-11.131a3.929,3.929,0,1,1,3.929,3.929A3.952,3.952,0,0,1,26.262,26.207Zm-4.116-4.864a11.348,11.348,0,0,1,16,0A11.217,11.217,0,0,1,39.919,35a12.411,12.411,0,0,0-6.08-4.209,5.8,5.8,0,1,0-7.3,0A11.63,11.63,0,0,0,20.462,35,11.347,11.347,0,0,1,22.146,21.343Z" transform="translate(-17.017 -16.175)"/></g><g transform="translate(23.198 47.238)"><path class="a" d="M25.7,54.835a.884.884,0,0,0,.935.935h30.4a.935.935,0,0,0,0-1.871h-30.4A1.006,1.006,0,0,0,25.7,54.835Z" transform="translate(-25.7 -53.9)"/></g><g transform="translate(50.138 23.292)"><path class="a" d="M55.435,30.171h1.871a.935.935,0,1,0,0-1.871H55.435a.935.935,0,0,0,0,1.871Z" transform="translate(-54.5 -28.3)"/></g><g transform="translate(50.138 17.305)"><path class="a" d="M55.435,23.771h1.871a.935.935,0,1,0,0-1.871H55.435a.884.884,0,0,0-.935.935A.937.937,0,0,0,55.435,23.771Z" transform="translate(-54.5 -21.9)"/></g><g transform="translate(50.138 29.185)"><path class="a" d="M55.435,36.471h1.871a.935.935,0,1,0,0-1.871H55.435a.935.935,0,1,0,0,1.871Z" transform="translate(-54.5 -34.6)"/></g><g transform="translate(50.138 35.171)"><path class="a" d="M55.435,42.871h1.871a.935.935,0,1,0,0-1.871H55.435a.935.935,0,1,0,0,1.871Z" transform="translate(-54.5 -41)"/></g><g transform="translate(50.138 41.158)"><path class="a" d="M55.435,49.271h1.871a.935.935,0,1,0,0-1.871H55.435a.935.935,0,1,0,0,1.871Z" transform="translate(-54.5 -47.4)"/></g></g></g></g></svg>