<svg xmlns="http://www.w3.org/2000/svg" width="77.088" height="58.796" viewBox="0 0 77.088 58.796"><defs><style>.a,.b{fill:#fff;}.b{stroke:#fff;}</style></defs><g transform="translate(-1262.588 -1413.694)"><g transform="translate(1262.588 1413.694)"><g transform="translate(0 0)"><path class="a" d="M78.317,37.991,62.45,22.124A3.806,3.806,0,0,0,59.738,21H37.789v2.556H44.18V42.729h2.556V23.556h13a1.29,1.29,0,0,1,.9.375l2.182,2.182H56.962a2.556,2.556,0,0,0-2.556,2.556v11.5a2.556,2.556,0,0,0,2.556,2.556H76.135V52.954a1.278,1.278,0,0,1-1.278,1.278H72.2a8.936,8.936,0,0,0-17.69,0h-18.1a8.936,8.936,0,0,0-17.69,0H16.06a1.278,1.278,0,0,1-1.278-1.278v-11.5H12.226v11.5a3.835,3.835,0,0,0,3.835,3.835h2.659a8.915,8.915,0,0,0,2.6,5.113H2v2.556H63.353A8.947,8.947,0,0,0,72.2,56.789h2.659a3.835,3.835,0,0,0,3.835-3.835V38.894a1.278,1.278,0,0,0-.374-.9ZM21.173,55.511A6.391,6.391,0,1,1,27.564,61.9,6.391,6.391,0,0,1,21.173,55.511ZM33.813,61.9a8.915,8.915,0,0,0,2.6-5.113h18.1A8.915,8.915,0,0,0,57.1,61.9Zm29.54,0a6.391,6.391,0,1,1,6.391-6.391A6.391,6.391,0,0,1,63.353,61.9ZM56.962,40.173v-11.5H65.38L76.135,39.424v.749Z" transform="translate(-1.604 -5.662)"/><rect class="a" width="3.69" height="3.69" transform="translate(23.983 47.846)"/><rect class="a" width="1.845" height="3.69" transform="translate(60.881 47.846)"/><rect class="a" width="7.379" height="3.69" transform="translate(0 44.157)"/><rect class="a" width="3.69" height="1.845" transform="translate(3.69 40.467)"/><rect class="a" width="3.69" height="1.845" transform="translate(3.69 34.932)"/><path class="a" d="M18.616,42.233A16.616,16.616,0,1,0,2,25.616,16.616,16.616,0,0,0,18.616,42.233Zm0-30.676a14.06,14.06,0,1,1-14.06,14.06,14.06,14.06,0,0,1,14.06-14.06Z" transform="translate(-1.604 -9)"/><rect class="a" width="3.69" height="1.845" transform="translate(49.811 40.467)"/></g></g><g transform="translate(1269.522 1419.41)"><path class="b" d="M22.17,10.56l-1,.122V7.226a2.226,2.226,0,0,0-3.422-1.877l-.912.581a1.371,1.371,0,0,1-1.467,0l-.912-.582A2.226,2.226,0,0,0,11.03,7.226v3.456c-.347-.041-.686-.082-1-.122-2.224-.276-3.567-.444-4.158.079a.875.875,0,0,0-.3.676c0,.971,1.585,2.862,4.024,4.294-.008.089-.015.2-.021.32a5.157,5.157,0,0,0-1.811,4.195.429.429,0,0,0,.084.213l1.7,2.265H7.659a.431.431,0,0,0-.3.738l3.118,3.077a.431.431,0,1,0,.605-.613l-2.371-2.34h1.7a.431.431,0,0,0,.345-.689L8.61,19.919a4.007,4.007,0,0,1,.98-2.75,10.284,10.284,0,0,0,6.4,8.925.433.433,0,0,0,.356,0,10.284,10.284,0,0,0,6.4-8.928,3.994,3.994,0,0,1,.98,2.754L21.58,22.775a.431.431,0,0,0,.345.689h1.7L21.253,25.8a.431.431,0,1,0,.605.613l3.118-3.077a.431.431,0,0,0-.3-.738H22.786l1.7-2.265a.429.429,0,0,0,.084-.213,5.157,5.157,0,0,0-1.811-4.195c-.008-.162-.018-.3-.028-.4,2.364-1.422,3.891-3.264,3.891-4.217a.877.877,0,0,0-.3-.677C25.733,10.117,24.392,10.284,22.17,10.56ZM11.892,7.226a1.365,1.365,0,0,1,2.1-1.151l.912.582a2.233,2.233,0,0,0,2.392,0l.912-.581a1.364,1.364,0,0,1,2.1,1.15v3.7a12.929,12.929,0,0,1-4.185.848,13.115,13.115,0,0,1-4.226-.848Zm0,4.619a13.532,13.532,0,0,0,4.226.793,13.341,13.341,0,0,0,4.185-.792V12.6a13.521,13.521,0,0,1-4.185.851,12.636,12.636,0,0,1-4.226-.844Zm4.274,13.381a9.357,9.357,0,0,1-5.752-9.018.42.42,0,0,0,0-.057c0-.032,0-.062,0-.093.341.171.695.333,1.06.48a2.179,2.179,0,1,0,4.249.925c.122,0,.243.009.366.009.169,0,.337,0,.5-.012a2.18,2.18,0,1,0,4.235-.973c.37-.154.729-.32,1.074-.5,0,.051.006.106.008.163a.423.423,0,0,0,0,.055A9.357,9.357,0,0,1,16.166,25.226Zm-3.908-8.091a1.338,1.338,0,0,1,.037-.3,12.482,12.482,0,0,0,2.579.567,1.322,1.322,0,0,1-2.616-.268Zm5.2.252a12.574,12.574,0,0,0,2.575-.595,1.322,1.322,0,1,1-2.575.595Zm2.628-1.522c-.011.005-.024.005-.035.012l0,0a11.661,11.661,0,0,1-3,.687l-.008,0a.408.408,0,0,0-.055.007c-.292.024-.587.039-.887.039a11.359,11.359,0,0,1-3.851-.695l0,0c-.007,0-.016,0-.023-.007a13.193,13.193,0,0,1-1.931-.885l-.009,0C7.925,13.7,6.434,11.941,6.435,11.288c.217-.28,2.029-.054,3.485.127.351.044.725.09,1.11.135V12.9a.431.431,0,0,0,.257.394,13.415,13.415,0,0,0,4.831,1.021A14.649,14.649,0,0,0,20.9,13.3a.431.431,0,0,0,.268-.4V11.55c.385-.045.76-.091,1.111-.135,1.456-.181,3.265-.406,3.483-.1C25.759,12.1,23.464,14.6,20.082,15.865Z" transform="translate(-5.571 -5)"/></g></g></svg>